<?xml version="1.0" encoding="UTF-8"?>
<svg id="Ebene_2" data-name="Ebene 2" xmlns="http://www.w3.org/2000/svg" viewBox="0 0 817.69 785.42">
  <defs>
    <style>
      .cls-1 {
        fill: #1d1d1b;
      }
    </style>
  </defs>
  <g id="Profil">
    <circle id="Ellipse_4" data-name="Ellipse 4" class="cls-1" cx="195.93" cy="135.84" r="109.91"/>
    <path id="Rechteck_12" data-name="Rechteck 12" class="cls-1" d="M181.6,255.31h28.67c100.29,0,181.6,81.3,181.6,181.6H0C0,336.61,81.3,255.31,181.6,255.31Z"/>
    <g>
      <path class="cls-1" d="M106.07,436.91s1.41,145.47,1.41,202.49c0,26.9,16.04,47.56,35.94,60.34,17.39,11.17,59.3,7.08,59.3,7.08,0,0,13.17,52.06,43.97,58.9,14.28,3.17,109.11,0,109.11,0l-.02-164.61s-79.58-2.98-102.73,2.3c-37.16,8.48-51.45,60.47-51.45,60.47,0,0-21.8,3.08-36.85-2.43-9.03-3.31-14.19-16.09-14.47-22.04-1.96-40.91-4.45-202.39-4.45-202.39"/>
      <rect class="cls-1" x="355.81" y="629.91" width="40.1" height="39.11"/>
      <rect class="cls-1" x="355.81" y="696.95" width="40.1" height="39.11"/>
    </g>
  </g>
  <g id="Profil-2">
    <circle id="Ellipse_4-2" data-name="Ellipse 4-2" class="cls-1" cx="621.76" cy="135.84" r="109.91"/>
    <path id="Rechteck_12-2" data-name="Rechteck 12-2" class="cls-1" d="M607.42,255.31h28.67c100.29,0,181.6,81.3,181.6,181.6h-391.87c0-100.29,81.3-181.6,181.6-181.6Z"/>
    <path class="cls-1" d="M712.43,436.91s-1.41,145.47-1.41,202.49c0,26.9-16.04,47.56-35.94,60.34-17.39,11.17-59.3,7.08-59.3,7.08,0,0-13.17,52.06-43.97,58.9-14.28,3.17-109.11,0-109.11,0l.02-164.61s79.58-2.98,102.73,2.3c37.16,8.48,51.45,60.47,51.45,60.47,0,0,21.8,3.08,36.85-2.43,9.03-3.31,14.19-16.09,14.47-22.04,1.96-40.91,4.45-202.39,4.45-202.39"/>
  </g>
</svg>