<?xml version="1.0" encoding="UTF-8"?>
<svg id="Ebene_2" data-name="Ebene 2" xmlns="http://www.w3.org/2000/svg" viewBox="0 0 817.69 785.42">
  <defs>
    <style>
      .cls-1 {
        fill: #fffffe;
      }

      .cls-2 {
        fill: #fff;
      }

      .cls-3 {
        fill: #fefefe;
      }
    </style>
  </defs>
  <path d="M465.93,622.32l134.6,130.03.69-129.8,132.82-.5c45.61-.17,81.11-37.53,83.66-82.59l-.68-370.95c-.08-43.21-39.29-81.53-83.04-81.53l-648.51-.06C35.88,86.91-.1,129.41,0,177.17l.78,362.41c.1,44.26,38.58,82.37,82.99,82.4l382.16.33Z"/>
  <path class="cls-2" d="M647.92,243.73l-473.43.32c-10.78,0-18.54-4.98-19.81-15.22-1.15-9.22,5.67-18.84,16.89-18.84l472.98-.05c9.93,0,16.29,6.54,17.54,15.04.98,6.68-3.75,18.74-14.17,18.75Z"/>
  <path class="cls-3" d="M646.02,413.01l-477.12-.09c-8.76,0-14.58-10.58-14.29-17.13.39-8.71,6.91-16.46,16.96-16.46h474.46c9.84,0,16.15,8.61,16.14,16.42-.01,8.28-6.15,17.26-16.15,17.26Z"/>
  <path class="cls-1" d="M648.35,497.12l-478.25.2c-10.35,0-16.22-10.15-15.53-18.18.82-9.49,8.08-15.64,18.5-15.64l471.48.04c9.66,0,15.87,5.88,17.48,14.3,1.2,6.26-3.06,19.28-13.67,19.29Z"/>
  <path class="cls-3" d="M642.3,328.12l-470.69-.03c-9.95,0-16.26-7.38-17.06-15.89-.7-7.47,5.34-17.95,15.6-17.95l477.28.03c10,0,15.48,11.43,14.76,17.81-1.19,10.51-8.08,16.03-19.89,16.03Z"/>
</svg>