<?xml version="1.0" encoding="UTF-8"?>
<svg id="Ebene_2" data-name="Ebene 2" xmlns="http://www.w3.org/2000/svg" viewBox="0 0 1176.35 1206.25">
  <defs>
    <style>
      .cls-1 {
        fill: #fff;
        stroke-width: 2px;
      }

      .cls-1, .cls-2 {
        stroke: #000;
        stroke-miterlimit: 10;
      }

      .cls-2 {
        fill: none;
        stroke-width: 5px;
      }
    </style>
  </defs>
  <rect class="cls-1" x="-40.6" y="-41.62" width="1293.34" height="1462.26"/>
  <g>
    <path class="cls-2" d="M452.37,205.06s-81.32,15.81-74.54,99.39c0,0-12.87,34.46-3.2,57.14,8.12,19.05,9.5,31.19,8.28,35.58-.26.94,2.56,29.37,2.56,29.37,0,17.38,4.55,34.46,13.25,49.5,22.53,38.95,69.81,112.41,119.15,110.76,67.76-2.26,94.87-40.66,94.87-40.66,0,0,81.32-65.51,63.25-126.49l42.92-49.69s4.52-51.95-13.55-45.18-31.62,47.44-31.62,47.44c0,0-54.21-221.36-221.36-167.15Z"/>
    <path class="cls-2" d="M676,419.64l43.42,207.45c2.32,11.95-2.39,32.46,8.72,27.48l70.55-43.04c20.65-12.6,25.67.97,5.12-42.04l-7.15-14.68s-12.42-43.29-1.13-88.47-96.22-215.82-96.22-215.82c-45.12-122.46-169.1-154.35-210.13-143.99-6.07,1.53-8.78,10.2-7.96,9.29.19-.22-10.48-3.58-39.47,0-28.05,4.71-43.02,32.03-80.96,96.25-61.32,103.81-14.59,214.1-9.34,225.93,0,0,38.92,94.36,39.75,103.91.75,8.66-19.59,77.32-23.72,102.4-1.46,8.9,12.16,12.23,18.82,16.56,21.08,13.73,62.21,38.56,93.9,36.89,42.92-2.26-22.15-139.05-22.15-139.05l-.63-1.38"/>
    <line class="cls-2" x1="452.37" y1="205.06" x2="481.22" y2="115.82"/>
    <path class="cls-2" d="M511.39,354.14s7.62-39.81,68.61-14.4c0,0-32.61,14.43-68.61,14.4Z"/>
    <path class="cls-2" d="M454.65,373.54s-37.69-18.81-52.58,17.69c0,0,45.31-11.21,52.58-17.69Z"/>
    <path class="cls-2" d="M489.36,331.26l14.4,5.94s19.28-48.28,85.03-22.02l16.62-1.69s-60.99-55.92-116.05,17.78Z"/>
    <path class="cls-2" d="M452.37,356.9l-12.14-19.71s-51.91-4.24-62.8,23.72l5.6,10.46s7.79-29.49,69.34-14.46Z"/>
    <path class="cls-2" d="M540.71,429.34c.53,3.4,1.06,6.9.26,10.24s-3.25,6.54-6.64,7.12c-2.53.44-5.05-.61-7.57-1.12-9-1.82-18.89,4.2-21.39,13.04.73.43,1.63,1.03,1.14,1.72s-1.32,1.04-2.13,1.32c-8.71,2.98-18.38.71-26.76-3.1-2.49-1.13-4.96-2.41-7.65-2.9s-5.72-.03-7.65,1.91c0,0-5.02-17.61,0-22.13,5.02-4.52,13.49-19.17,11.23-36.41-2.26-17.24-9.98-34.74-13.46-34.74"/>
    <path class="cls-2" d="M520.99,413.67s53.73,29.13,67.81,43.24c14.08,14.12,5.61,26.54,5.61,26.54"/>
    <path class="cls-2" d="M462.32,457.58s-19.33,25.87-17.57,33.21,12.58,21.43,12.58,21.43"/>
    <path class="cls-2" d="M508.56,485.2s32.82-22.16,71.44-13.9c0,0-22.87,12.82-29.65,13.9s-23.15,15.2-32.75,16.32-23.15-3.39-23.15-3.39l-28.24,7.34s21.46-29.83,42.35-20.28Z"/>
    <path class="cls-2" d="M573.2,474.99c-3.99,20.74-50.1,46.87-50.1,46.87,0,0-30.35.56-50.68-16.38"/>
    <path class="cls-2" d="M417.15,372.74s-2.49,9.59,6.11,12.77l17.56-5.55s3.47-5.29-2.93-11.27"/>
    <path class="cls-2" d="M534.49,332.32s-5.72,6.87,2.86,19.58l16.3-3.45s8.91-2.24,3.79-15.82"/>
    <path class="cls-2" d="M719.42,641.68c-71.48,25.39-114.01,247.34-114.01,247.34h-25.41s12.26-227.7-94.42-260.48"/>
    <path class="cls-2" d="M125.5,1423.23s40.66-630.21,110.68-713.79c70.02-83.58,141.25-94.46,141.25-94.46"/>
    <path class="cls-2" d="M1241.36,903.7s-219.29-283.12-424.61-304.9"/>
    <path class="cls-2" d="M687.1,390.62s42.07,36.22,19.2,57.94c1.1,1.17-19.17,9.05-27.76-31.87"/>
    <path class="cls-2" d="M695.12,379.97s13.91,8.74,16.72,16.09c1,2.63-1.05,5.43-3.86,5.37-3.85-.08-9.76-1.04-11.04-6.03"/>
    <path class="cls-2" d="M704.71,370.62s12.11,7.61,14.56,14.01c.87,2.29-.91,4.73-3.36,4.68-3.35-.07-8.5-.91-9.61-5.25"/>
    <path class="cls-2" d="M412.14,498.17s-5.32,25.49,0,28.88,20.87,22.53,29.61,12.11"/>
    <path class="cls-2" d="M592.8,1198.76l12.61-309.74h-25.41s-16,254.68,5.18,309.74"/>
    <path class="cls-2" d="M775.76,628.54l13.55,33.18s-58.45,20.33-86.4,79.62c-27.95,59.29-79.62,457.41-79.62,457.41h-82.99s-26.24-456.84-40.68-479.43-19.42-21.56-19.42-21.56"/>
  </g>
</svg>